<svg width="218" height="36" viewBox="0 0 218 36" fill="none" xmlns="http://www.w3.org/2000/svg">
<path d="M0.16 18.056C0.16 15.592 0.608 13.304 1.504 11.192C2.432 9.08 3.664 7.24 5.2 5.672C6.768 4.104 8.608 2.888 10.72 2.024C12.832 1.128 15.104 0.695998 17.536 0.727998C20.128 0.759997 22.512 1.288 24.688 2.312C26.896 3.336 28.8 4.744 30.4 6.536C30.496 6.664 30.528 6.808 30.496 6.968C30.496 7.128 30.432 7.256 30.304 7.352L26.512 10.568C26.384 10.664 26.24 10.712 26.08 10.712C25.92 10.68 25.792 10.6 25.696 10.472C24.64 9.256 23.392 8.296 21.952 7.592C20.512 6.856 18.96 6.504 17.296 6.536C15.792 6.568 14.368 6.904 13.024 7.544C11.68 8.152 10.512 9 9.52 10.088C8.528 11.144 7.744 12.376 7.168 13.784C6.592 15.192 6.304 16.696 6.304 18.296C6.304 19.896 6.608 21.4 7.216 22.808C7.824 24.216 8.64 25.448 9.664 26.504C10.688 27.56 11.872 28.392 13.216 29C14.56 29.576 16 29.864 17.536 29.864C19.136 29.832 20.64 29.464 22.048 28.76C23.456 28.056 24.672 27.096 25.696 25.88C25.792 25.752 25.92 25.688 26.08 25.688C26.24 25.656 26.384 25.704 26.512 25.832L30.304 29.048C30.432 29.144 30.496 29.272 30.496 29.432C30.528 29.592 30.496 29.736 30.4 29.864C28.768 31.688 26.832 33.128 24.592 34.184C22.352 35.208 19.904 35.704 17.248 35.672C14.848 35.672 12.592 35.224 10.48 34.328C8.4 33.4 6.592 32.152 5.056 30.584C3.52 28.984 2.32 27.112 1.456 24.968C0.592 22.824 0.16 20.52 0.16 18.056ZM74.7228 1.976C74.7228 1.816 74.7708 1.688 74.8668 1.592C74.9948 1.464 75.1388 1.4 75.2988 1.4H86.0028C88.3068 1.4 90.4668 1.832 92.4828 2.696C94.4988 3.56 96.2588 4.744 97.7628 6.248C99.2668 7.72 100.467 9.464 101.363 11.48C102.291 13.464 102.771 15.592 102.803 17.864C102.867 20.232 102.435 22.456 101.507 24.536C100.611 26.616 99.3788 28.44 97.8108 30.008C96.2428 31.544 94.4028 32.76 92.2908 33.656C90.2108 34.552 87.9868 35 85.6188 35H75.2988C75.1388 35 74.9948 34.952 74.8668 34.856C74.7708 34.728 74.7228 34.584 74.7228 34.424V1.976ZM80.8668 28.904H86.0028C87.4748 28.904 88.8508 28.632 90.1308 28.088C91.4428 27.512 92.5788 26.744 93.5388 25.784C94.5308 24.792 95.2988 23.656 95.8428 22.376C96.4188 21.064 96.7068 19.672 96.7068 18.2C96.7068 16.728 96.4188 15.352 95.8428 14.072C95.2988 12.76 94.5308 11.624 93.5388 10.664C92.5788 9.672 91.4428 8.904 90.1308 8.36C88.8508 7.784 87.4748 7.496 86.0028 7.496H80.8668V28.904ZM108.955 1.4H113.899C114.315 1.4 114.523 1.592 114.523 1.976V34.424C114.523 34.808 114.315 35 113.899 35H108.955C108.795 35 108.651 34.952 108.523 34.856C108.427 34.728 108.379 34.584 108.379 34.424V1.976C108.379 1.816 108.427 1.688 108.523 1.592C108.651 1.464 108.795 1.4 108.955 1.4Z" fill="black"/>
<path d="M34.5663 18.056C34.5663 15.592 35.0143 13.304 35.9103 11.192C36.8383 9.048 38.0703 7.208 39.6063 5.672C41.1743 4.104 43.0143 2.888 45.1263 2.024C47.2383 1.128 49.5103 0.695998 51.9423 0.727998C54.3743 0.759997 56.6463 1.24 58.7583 2.168C60.8703 3.096 62.6943 4.36 64.2303 5.96C65.7983 7.56 67.0303 9.432 67.9263 11.576C68.8223 13.688 69.2543 15.944 69.2223 18.344C69.1903 20.776 68.7103 23.048 67.7823 25.16C66.8543 27.272 65.5903 29.112 63.9903 30.68C62.4223 32.248 60.5823 33.48 58.4703 34.376C56.3583 35.24 54.0863 35.672 51.6543 35.672C49.2543 35.672 46.9983 35.224 44.8863 34.328C42.8063 33.4 40.9983 32.152 39.4622 30.584C37.9263 28.984 36.7263 27.112 35.8623 24.968C34.9983 22.824 34.5663 20.52 34.5663 18.056ZM40.7103 18.296C40.7103 19.864 41.0143 21.352 41.6223 22.76C42.2303 24.168 43.0463 25.4 44.0703 26.456C45.0943 27.512 46.2783 28.344 47.6223 28.952C48.9663 29.56 50.4063 29.864 51.9423 29.864C53.4463 29.832 54.8703 29.496 56.2143 28.856C57.5583 28.216 58.7263 27.368 59.7183 26.312C60.7423 25.224 61.5423 23.976 62.1183 22.568C62.6943 21.128 62.9663 19.624 62.9343 18.056C62.9343 16.488 62.6303 15 62.0223 13.592C61.4143 12.184 60.5983 10.968 59.5743 9.944C58.5503 8.888 57.3503 8.056 55.9743 7.448C54.6303 6.84 53.2063 6.536 51.7023 6.536C50.1983 6.568 48.7743 6.904 47.4303 7.544C46.0863 8.152 44.9183 9 43.9263 10.088C42.9343 11.144 42.1503 12.376 41.5743 13.784C40.9983 15.192 40.7103 16.696 40.7103 18.296Z" fill="#3185FC"/>
<path d="M122.033 1.4H147.377C147.761 1.4 147.953 1.592 147.953 1.976V9.032C147.953 9.48 147.825 9.88 147.569 10.232L141.425 18.2L147.569 26.168C147.825 26.52 147.953 26.92 147.953 27.368V34.424C147.953 34.808 147.761 35 147.377 35H122.033C121.873 35 121.729 34.952 121.601 34.856C121.505 34.728 121.457 34.584 121.457 34.424V1.976C121.457 1.816 121.505 1.688 121.601 1.592C121.729 1.464 121.873 1.4 122.033 1.4ZM141.665 28.904L133.745 18.584C133.585 18.328 133.585 18.088 133.745 17.864L141.665 7.496H127.601V28.904H141.665ZM153.535 18.056C153.535 15.592 153.983 13.304 154.879 11.192C155.807 9.048 157.039 7.208 158.575 5.672C160.143 4.104 161.983 2.888 164.095 2.024C166.207 1.128 168.479 0.695998 170.911 0.727998C173.343 0.759997 175.615 1.24 177.727 2.168C179.839 3.096 181.663 4.36 183.199 5.96C184.767 7.56 185.999 9.432 186.895 11.576C187.791 13.688 188.223 15.944 188.191 18.344C188.159 20.776 187.679 23.048 186.751 25.16C185.823 27.272 184.559 29.112 182.959 30.68C181.391 32.248 179.551 33.48 177.439 34.376C175.327 35.24 173.055 35.672 170.623 35.672C168.223 35.672 165.967 35.224 163.855 34.328C161.775 33.4 159.967 32.152 158.431 30.584C156.895 28.984 155.695 27.112 154.831 24.968C153.967 22.824 153.535 20.52 153.535 18.056ZM159.679 18.296C159.679 19.864 159.983 21.352 160.591 22.76C161.199 24.168 162.015 25.4 163.039 26.456C164.063 27.512 165.247 28.344 166.591 28.952C167.935 29.56 169.375 29.864 170.911 29.864C172.415 29.832 173.839 29.496 175.183 28.856C176.527 28.216 177.695 27.368 178.687 26.312C179.711 25.224 180.511 23.976 181.087 22.568C181.663 21.128 181.935 19.624 181.903 18.056C181.903 16.488 181.599 15 180.991 13.592C180.383 12.184 179.567 10.968 178.543 9.944C177.519 8.888 176.319 8.056 174.943 7.448C173.599 6.84 172.175 6.536 170.671 6.536C169.167 6.568 167.743 6.904 166.399 7.544C165.055 8.152 163.887 9 162.895 10.088C161.903 11.144 161.119 12.376 160.543 13.784C159.967 15.192 159.679 16.696 159.679 18.296ZM190.277 1.88C190.277 1.72 190.325 1.592 190.421 1.496C190.549 1.368 190.693 1.304 190.853 1.304H211.685C212.325 1.304 212.853 1.56 213.269 2.072L216.821 6.728C216.949 6.888 216.965 7.048 216.869 7.208C216.805 7.336 216.677 7.4 216.485 7.4H205.781V34.328C205.781 34.712 205.589 34.904 205.205 34.904H200.261C199.877 34.904 199.685 34.712 199.685 34.328V7.4H190.853C190.693 7.4 190.549 7.352 190.421 7.256C190.325 7.128 190.277 6.984 190.277 6.824V1.88Z" fill="#CDD5D1"/>
</svg>
